<svg xmlns="http://www.w3.org/2000/svg" width="396.75" viewBox="0 0 396.75 396.75" height="396.75" version="1.0"><defs><clipPath id="a"><path d="M 5.953125 5.953125 L 390.703125 5.953125 L 390.703125 390.703125 L 5.953125 390.703125 Z M 5.953125 5.953125"/></clipPath></defs><g clip-path="url(#a)"><path fill="#3D3D3D" d="M 198.328125 5.953125 C 92.222656 5.953125 5.953125 92.222656 5.953125 198.328125 C 5.953125 304.433594 92.222656 390.703125 198.328125 390.703125 C 304.433594 390.703125 390.703125 304.433594 390.703125 198.328125 C 390.703125 92.222656 304.433594 5.953125 198.328125 5.953125 Z M 306.539062 309.542969 C 306.539062 326.078125 293.011719 339.601562 276.480469 339.601562 L 120.175781 339.601562 C 103.644531 339.601562 90.117188 326.078125 90.117188 309.542969 L 90.117188 261.449219 C 90.117188 219.96875 113.5625 183.898438 147.828125 165.863281 C 138.210938 154.140625 132.199219 139.414062 132.199219 123.179688 C 132.199219 86.808594 161.957031 57.050781 198.328125 57.050781 C 234.699219 57.050781 264.457031 86.808594 264.457031 123.179688 C 264.457031 139.414062 258.445312 154.140625 248.828125 165.863281 C 283.09375 183.898438 306.539062 219.96875 306.539062 261.449219 Z M 306.539062 309.542969"/></g><path fill="#3D3D3D" d="M 239.808594 174.582031 C 235.902344 177.585938 231.992188 180.292969 227.484375 182.398438 C 259.648438 194.421875 282.492188 225.378906 282.492188 261.449219 L 282.492188 309.542969 C 282.492188 312.851562 279.785156 315.554688 276.480469 315.554688 L 120.175781 315.554688 C 116.867188 315.554688 114.164062 312.851562 114.164062 309.542969 L 114.164062 261.449219 C 114.164062 225.378906 137.007812 194.421875 169.171875 182.398438 C 164.664062 180.292969 160.753906 177.585938 156.847656 174.582031 C 124.683594 190.210938 102.140625 223.277344 102.140625 261.449219 L 102.140625 309.542969 C 102.140625 319.464844 110.257812 327.578125 120.175781 327.578125 L 276.480469 327.578125 C 286.398438 327.578125 294.515625 319.464844 294.515625 309.542969 L 294.515625 261.449219 C 294.515625 223.277344 271.972656 190.210938 239.808594 174.582031 Z M 239.808594 174.582031"/><path fill="#3D3D3D" d="M 198.328125 177.285156 C 228.085938 177.285156 252.433594 152.9375 252.433594 123.179688 C 252.433594 93.421875 228.085938 69.074219 198.328125 69.074219 C 168.570312 69.074219 144.222656 93.421875 144.222656 123.179688 C 144.222656 152.9375 168.570312 177.285156 198.328125 177.285156 Z M 198.328125 81.097656 C 221.472656 81.097656 240.410156 100.035156 240.410156 123.179688 C 240.410156 146.328125 221.472656 165.261719 198.328125 165.261719 C 175.183594 165.261719 156.246094 146.328125 156.246094 123.179688 C 156.246094 100.035156 175.183594 81.097656 198.328125 81.097656 Z M 198.328125 81.097656"/></svg>