<svg width="422" height="422" viewBox="0 0 422 422" fill="none" xmlns="http://www.w3.org/2000/svg">
<path d="M176.112 311.22V101.736H43.452V77.58H332.928V101.736H199.872V311.22H176.112ZM221.652 333.396V123.912H354.708V55.404H21.672V123.912H154.332V333.396H221.652ZM11.772 133.812V45.504H364.608L403.02 86.292V172.224H269.964V381.708H185.22L144.432 343.296V172.224H52.56L11.772 133.812Z" fill="black"/>
<rect x="279" y="182" width="134.545" height="185" rx="14" fill="#C0C0C0"/>
<circle cx="346.273" cy="231.614" r="42.8864" fill="#6ACC80"/>
<path fill-rule="evenodd" clip-rule="evenodd" d="M385.466 249.051C387.84 243.723 389.159 237.823 389.159 231.614C389.159 207.928 369.958 188.727 346.273 188.727C322.587 188.727 303.386 207.928 303.386 231.614C303.386 237.823 304.706 243.723 307.08 249.051C313.761 234.055 328.796 223.602 346.273 223.602C363.749 223.602 378.784 234.055 385.466 249.051Z" fill="#282828"/>
<circle cx="345.667" cy="219.494" r="16.2591" fill="#E4E4E4"/>
<rect x="294.977" y="287.114" width="61.3864" height="7.56818" fill="#646464"/>
<rect x="294.977" y="303.932" width="100.909" height="20.1818" fill="#646464"/>
<circle cx="389.58" cy="348.08" r="14.7159" fill="#646464"/>
<circle cx="347.534" cy="348.08" r="14.7159" fill="#646464"/>
<circle cx="303.807" cy="348.08" r="14.7159" fill="#646464"/>
</svg>
