<svg width="1888" height="456" viewBox="0 0 1888 456" fill="none" xmlns="http://www.w3.org/2000/svg">
<path d="M176.112 345.22V135.736H43.452V111.58H332.928V135.736H199.872V345.22H176.112ZM221.652 367.396V157.912H354.708V89.404H21.672V157.912H154.332V367.396H221.652ZM11.772 167.812V79.504H364.608L403.02 120.292V206.224H269.964V415.708H185.22L144.432 377.296V206.224H52.56L11.772 167.812Z" fill="black"/>
<rect x="279" y="216" width="134.545" height="185" rx="14" fill="#C0C0C0"/>
<circle cx="346.273" cy="265.614" r="42.8864" fill="#6ACC80"/>
<path fill-rule="evenodd" clip-rule="evenodd" d="M385.466 283.051C387.84 277.723 389.159 271.823 389.159 265.614C389.159 241.928 369.958 222.727 346.273 222.727C322.587 222.727 303.386 241.928 303.386 265.614C303.386 271.823 304.706 277.723 307.08 283.051C313.761 268.055 328.796 257.602 346.273 257.602C363.749 257.602 378.784 268.055 385.466 283.051Z" fill="#282828"/>
<circle cx="345.667" cy="253.494" r="16.2591" fill="#E4E4E4"/>
<rect x="294.977" y="321.114" width="61.3864" height="7.56818" fill="#646464"/>
<rect x="294.977" y="337.932" width="100.909" height="20.1818" fill="#646464"/>
<circle cx="389.58" cy="382.08" r="14.7159" fill="#646464"/>
<circle cx="347.534" cy="382.08" r="14.7159" fill="#646464"/>
<circle cx="303.807" cy="382.08" r="14.7159" fill="#646464"/>
<path d="M660.005 373H445.22V102.1H660.005V156.28H514.88V208.525H629.045V262.705H514.88V318.82H660.005V373ZM682.747 316.885C753.439 320.755 801.298 322.69 826.324 322.69C832.258 322.69 836.902 321.013 840.256 317.659C843.868 314.047 845.674 309.274 845.674 303.34V268.51H756.664C729.574 268.51 709.837 262.447 697.453 250.321C685.327 237.937 679.264 218.2 679.264 191.11V179.5C679.264 152.41 685.327 132.802 697.453 120.676C709.837 108.292 729.574 102.1 756.664 102.1H892.501V156.28H772.144C756.664 156.28 748.924 164.02 748.924 179.5V187.24C748.924 202.72 756.664 210.46 772.144 210.46H841.804C867.088 210.46 885.664 216.394 897.532 228.262C909.4 240.13 915.334 258.706 915.334 283.99V303.34C915.334 328.624 909.4 347.2 897.532 359.068C885.664 370.936 867.088 376.87 841.804 376.87C828.646 376.87 814.714 376.612 800.008 376.096L764.404 374.548C738.088 373.258 710.869 371.452 682.747 369.13V316.885ZM1124.28 102.1H1193.94V299.47C1193.94 326.56 1187.75 346.297 1175.37 358.681C1163.24 370.807 1143.63 376.87 1116.54 376.87H1027.53C1000.44 376.87 980.707 370.807 968.323 358.681C956.197 346.297 950.134 326.56 950.134 299.47V102.1H1019.79V299.47C1019.79 314.95 1027.53 322.69 1043.01 322.69H1101.06C1116.54 322.69 1124.28 314.95 1124.28 299.47V102.1ZM1472.58 222.07L1418.4 318.82H1364.22L1310.04 222.07V373H1240.38V102.1H1313.91L1391.31 245.29L1468.71 102.1H1542.24V373H1472.58V222.07ZM1803.62 373H1588.84V102.1H1803.62V156.28H1658.5V208.525H1772.66V262.705H1658.5V318.82H1803.62V373Z" fill="black"/>
<rect x="1022" y="70" width="107" height="268" rx="40" fill="#6ACC80"/>
<path d="M1386.5 283L1263.96 70.75L1509.04 70.75L1386.5 283Z" fill="#6ACC80"/>
</svg>
